<?xml version="1.0"?>
<svg xmlns="http://www.w3.org/2000/svg" xmlns:xlink="http://www.w3.org/1999/xlink" xmlns:svgjs="http://svgjs.com/svgjs" version="1.1" width="512" height="512" x="0" y="0" viewBox="0 0 512 512" style="enable-background:new 0 0 512 512" xml:space="preserve" class=""><g><g xmlns="http://www.w3.org/2000/svg"><path d="m121 503.211v-111.211h-112.211z" fill="#114d61" data-original="#000000" style="" class=""/><path d="m221.609 221.609 21.211 63.648 10.611 10.611 42.42-42.424-10.609-10.609z" fill="#114d61" data-original="#000000" style="" class=""/><path d="m336.806 266.476h59.994v200.67h-59.994z" transform="matrix(.707 -.707 .707 .707 -151.94 366.822)" fill="#114d61" data-original="#000000" style="" class=""/><path d="m444.879 452.375h59.994v45.006h-59.994z" transform="matrix(.707 -.707 .707 .707 -196.702 474.877)" fill="#114d61" data-original="#000000" style="" class=""/><path d="m391 306.16v-306.16h-391v362h151v150h240v-36.148l-174.401-174.39-42.424-127.3 127.275 42.454zm-270-260.16h210v30h-210zm-60 0h30v30h-30zm0 90v-30h270v30z" fill="#114d61" data-original="#000000" style="" class=""/></g></g></svg>
