<?xml version="1.0"?>
<svg xmlns="http://www.w3.org/2000/svg" xmlns:xlink="http://www.w3.org/1999/xlink" xmlns:svgjs="http://svgjs.com/svgjs" version="1.1" width="512" height="512" x="0" y="0" viewBox="0 0 256 256" style="enable-background:new 0 0 512 512" xml:space="preserve" class=""><g><g xmlns="http://www.w3.org/2000/svg"><g><g><g><circle cx="128" cy="128" fill="#114d61" r="119.4" data-original="#382b73" style="" class=""/></g></g></g><g><g><g><path d="m196.029 48.092h-118.223c-5.518 0-10.006 4.489-10.006 10.006v107.285c0 1.381 1.119 2.5 2.5 2.5s2.5-1.119 2.5-2.5v-107.285c0-2.76 2.246-5.006 5.006-5.006h107.06c-.855 1.473-1.345 3.183-1.345 5.006v139.804c0 2.76-2.246 5.006-5.006 5.006h-7.25c-.173-.116-.361-.213-.564-.284-1.996-.706-3.337-2.604-3.337-4.722v-22.519c0-1.381-1.119-2.5-2.5-2.5h-115.721c-1.381 0-2.5 1.119-2.5 2.5v22.519c0 5.517 4.488 10.006 10.006 10.006h121.866c5.518 0 10.006-4.489 10.006-10.006v-139.804c0-2.76 2.246-5.006 5.006-5.006h2.503c2.76 0 5.006 2.246 5.006 5.006v20.019h-4.334c-1.381 0-2.5 1.119-2.5 2.5s1.119 2.5 2.5 2.5h6.834c1.381 0 2.5-1.119 2.5-2.5v-22.519c-.001-5.517-4.489-10.006-10.007-10.006zm-139.381 154.816c-2.76 0-5.006-2.246-5.006-5.006v-20.019h110.721v20.019c0 1.798.483 3.516 1.346 5.006z" fill="#114d61" data-original="#291b4a" style="" class=""/></g></g><g><g><path d="m109.302 106.863h-20.49c-1.381 0-2.5 1.119-2.5 2.5s1.119 2.5 2.5 2.5h20.49c1.381 0 2.5-1.119 2.5-2.5s-1.119-2.5-2.5-2.5z" fill="#114d61" data-original="#291b4a" style="" class=""/></g></g><g><g><path d="m121.141 121.45h-32.329c-1.381 0-2.5 1.119-2.5 2.5s1.119 2.5 2.5 2.5h32.329c1.381 0 2.5-1.119 2.5-2.5s-1.12-2.5-2.5-2.5z" fill="#114d61" data-original="#291b4a" style="" class=""/></g></g><g><g><path d="m162.576 121.45h-31.436c-1.381 0-2.5 1.119-2.5 2.5s1.119 2.5 2.5 2.5h31.436c1.381 0 2.5-1.119 2.5-2.5s-1.119-2.5-2.5-2.5z" fill="#114d61" data-original="#291b4a" style="" class=""/></g></g><g><g><path d="m102.547 136.036h-13.735c-1.381 0-2.5 1.119-2.5 2.5s1.119 2.5 2.5 2.5h13.735c1.381 0 2.5-1.119 2.5-2.5s-1.119-2.5-2.5-2.5z" fill="#114d61" data-original="#291b4a" style="" class=""/></g></g><g><g><path d="m158.781 136.036h-12.843c-1.381 0-2.5 1.119-2.5 2.5s1.119 2.5 2.5 2.5h12.843c1.381 0 2.5-1.119 2.5-2.5s-1.119-2.5-2.5-2.5z" fill="#114d61" data-original="#291b4a" style="" class=""/></g></g><g><g><path d="m135.938 136.036h-23.392c-1.381 0-2.5 1.119-2.5 2.5s1.119 2.5 2.5 2.5h23.392c1.381 0 2.5-1.119 2.5-2.5s-1.119-2.5-2.5-2.5z" fill="#114d61" data-original="#291b4a" style="" class=""/></g></g><g><g><path d="m95.679 150.623h-6.867c-1.381 0-2.5 1.119-2.5 2.5s1.119 2.5 2.5 2.5h6.867c1.381 0 2.5-1.119 2.5-2.5s-1.119-2.5-2.5-2.5z" fill="#114d61" data-original="#291b4a" style="" class=""/></g></g><g><g><path d="m121.425 150.623h-15.746c-1.381 0-2.5 1.119-2.5 2.5s1.119 2.5 2.5 2.5h15.746c1.381 0 2.5-1.119 2.5-2.5s-1.119-2.5-2.5-2.5z" fill="#114d61" data-original="#291b4a" style="" class=""/></g></g><g><g><path d="m162.576 150.623h-31.151c-1.381 0-2.5 1.119-2.5 2.5s1.119 2.5 2.5 2.5h31.151c1.381 0 2.5-1.119 2.5-2.5s-1.119-2.5-2.5-2.5z" fill="#114d61" data-original="#291b4a" style="" class=""/></g></g><g><g><path d="m162.576 67.88h-73.764c-1.381 0-2.5 1.119-2.5 2.5s1.119 2.5 2.5 2.5h73.765c1.381 0 2.5-1.119 2.5-2.5s-1.12-2.5-2.501-2.5z" fill="#114d61" data-original="#291b4a" style="" class=""/></g></g><g><g><path d="m162.576 84.949h-73.764c-1.381 0-2.5 1.119-2.5 2.5s1.119 2.5 2.5 2.5h73.765c1.381 0 2.5-1.119 2.5-2.5s-1.12-2.5-2.501-2.5z" fill="#114d61" data-original="#291b4a" style="" class=""/></g></g></g><g><g><g><path d="m194.256 44.092h-116.45c-5.518 0-10.006 4.489-10.006 10.006v107.285c0 1.381 1.119 2.5 2.5 2.5s2.5-1.119 2.5-2.5v-107.285c0-2.76 2.246-5.006 5.006-5.006h116.45c1.381 0 2.5-1.119 2.5-2.5s-1.119-2.5-2.5-2.5z" fill="#ffffff" data-original="#65c1d6" style="" class=""/></g></g><g><g><path d="m196.029 44.092h-2.503c-5.518 0-10.006 4.489-10.006 10.006v139.804c0 2.76-2.246 5.006-5.006 5.006h-8.647c-1.381 0-2.5 1.119-2.5 2.5s1.119 2.5 2.5 2.5h8.647c5.518 0 10.006-4.489 10.006-10.006v-139.804c0-2.76 2.246-5.006 5.006-5.006h2.503c2.76 0 5.006 2.246 5.006 5.006v20.019h-4.334c-1.381 0-2.5 1.119-2.5 2.5s1.119 2.5 2.5 2.5h6.834c1.381 0 2.5-1.119 2.5-2.5v-22.519c0-5.517-4.488-10.006-10.006-10.006z" fill="#ffffff" data-original="#65c1d6" style="" class=""/></g></g><g><g><path d="m170.7 198.624c-1.996-.706-3.337-2.604-3.337-4.722v-22.519c0-1.381-1.119-2.5-2.5-2.5h-115.72c-1.381 0-2.5 1.119-2.5 2.5v22.519c0 5.517 4.488 10.006 10.006 10.006h113.219c1.381 0 2.5-1.119 2.5-2.5v-.427c-.001-1.06-.669-2.004-1.668-2.357zm-114.052.284c-2.76 0-5.006-2.246-5.006-5.006v-20.019h110.721v20.019c0 1.798.483 3.516 1.346 5.006z" fill="#ffffff" data-original="#65c1d6" style="" class=""/></g></g><g><g fill="#149cb2"><path d="m196.029 44.092h-118.223c-5.518 0-10.006 4.489-10.006 10.006v107.285c0 1.381 1.119 2.5 2.5 2.5s2.5-1.119 2.5-2.5v-107.285c0-2.76 2.246-5.006 5.006-5.006h107.06c-.855 1.473-1.345 3.183-1.345 5.006v139.804c0 2.76-2.246 5.006-5.006 5.006h-7.25c-.173-.116-.361-.213-.564-.284-1.996-.706-3.337-2.604-3.337-4.722v-22.519c0-1.381-1.119-2.5-2.5-2.5h-115.721c-1.381 0-2.5 1.119-2.5 2.5v22.519c0 5.517 4.488 10.006 10.006 10.006h121.866c5.518 0 10.006-4.489 10.006-10.006v-139.804c0-2.76 2.246-5.006 5.006-5.006h2.503c2.76 0 5.006 2.246 5.006 5.006v20.019h-4.334c-1.381 0-2.5 1.119-2.5 2.5s1.119 2.5 2.5 2.5h6.834c1.381 0 2.5-1.119 2.5-2.5v-22.519c-.001-5.517-4.489-10.006-10.007-10.006zm8.506 32.525c0 .552-.449 1-1 1h-6.834c-.551 0-1-.448-1-1s.449-1 1-1h4.334c.828 0 1.5-.672 1.5-1.5v-20.019c0-3.587-2.919-6.506-6.506-6.506h-2.503c-3.587 0-6.506 2.918-6.506 6.506v139.804c0 4.69-3.816 8.506-8.506 8.506h-121.866c-4.69 0-8.506-3.816-8.506-8.506v-22.519c0-.552.449-1 1-1h115.721c.551 0 1 .448 1 1v22.519c0 2.752 1.743 5.218 4.338 6.136.078.028.154.066.226.114.248.167.539.256.838.256h7.25c3.587 0 6.506-2.918 6.506-6.506v-139.804c0-1.494.395-2.965 1.142-4.253.269-.464.27-1.037.002-1.501-.268-.465-.763-.751-1.3-.751h-107.059c-3.587 0-6.506 2.918-6.506 6.506v107.285c0 .552-.449 1-1 1s-1-.448-1-1v-107.286c0-4.69 3.816-8.506 8.506-8.506h118.224c4.69 0 8.506 3.816 8.506 8.506v22.519z" fill="#ffffff" data-original="#149cb2" style="" class=""/><path d="m163.863 193.902v-20.019c0-.828-.672-1.5-1.5-1.5h-110.72c-.828 0-1.5.672-1.5 1.5v20.019c0 3.587 2.919 6.506 6.506 6.506h107.061c.536 0 1.032-.286 1.299-.751s.267-1.037-.001-1.501c-.749-1.292-1.145-2.764-1.145-4.254zm-107.215 5.006c-2.76 0-5.006-2.246-5.006-5.006v-20.019h110.721v20.019c0 1.798.483 3.516 1.346 5.006z" fill="#ffffff" data-original="#149cb2" style="" class=""/></g></g><g><g><path d="m109.302 102.863h-20.49c-1.381 0-2.5 1.119-2.5 2.5s1.119 2.5 2.5 2.5h20.49c1.381 0 2.5-1.119 2.5-2.5s-1.119-2.5-2.5-2.5z" fill="#ffffff" data-original="#ed9abc" style="" class=""/></g></g><g><g><path d="m121.141 117.45h-32.329c-1.381 0-2.5 1.119-2.5 2.5s1.119 2.5 2.5 2.5h32.329c1.381 0 2.5-1.119 2.5-2.5s-1.12-2.5-2.5-2.5z" fill="#ffffff" data-original="#ed9abc" style="" class=""/></g></g><g><g><path d="m162.576 117.45h-31.436c-1.381 0-2.5 1.119-2.5 2.5s1.119 2.5 2.5 2.5h31.436c1.381 0 2.5-1.119 2.5-2.5s-1.119-2.5-2.5-2.5z" fill="#ffffff" data-original="#ed9abc" style="" class=""/></g></g><g><g><path d="m102.547 132.036h-13.735c-1.381 0-2.5 1.119-2.5 2.5s1.119 2.5 2.5 2.5h13.735c1.381 0 2.5-1.119 2.5-2.5s-1.119-2.5-2.5-2.5z" fill="#ffffff" data-original="#ed9abc" style="" class=""/></g></g><g><g><path d="m158.781 132.036h-12.843c-1.381 0-2.5 1.119-2.5 2.5s1.119 2.5 2.5 2.5h12.843c1.381 0 2.5-1.119 2.5-2.5s-1.119-2.5-2.5-2.5z" fill="#ffffff" data-original="#ed9abc" style="" class=""/></g></g><g><g><path d="m135.938 132.036h-23.392c-1.381 0-2.5 1.119-2.5 2.5s1.119 2.5 2.5 2.5h23.392c1.381 0 2.5-1.119 2.5-2.5s-1.119-2.5-2.5-2.5z" fill="#ffffff" data-original="#ed9abc" style="" class=""/></g></g><g><g><path d="m95.679 146.623h-6.867c-1.381 0-2.5 1.119-2.5 2.5s1.119 2.5 2.5 2.5h6.867c1.381 0 2.5-1.119 2.5-2.5s-1.119-2.5-2.5-2.5z" fill="#ffffff" data-original="#ed9abc" style="" class=""/></g></g><g><g><path d="m121.425 146.623h-15.746c-1.381 0-2.5 1.119-2.5 2.5s1.119 2.5 2.5 2.5h15.746c1.381 0 2.5-1.119 2.5-2.5s-1.119-2.5-2.5-2.5z" fill="#ffffff" data-original="#ed9abc" style="" class=""/></g></g><g><g><path d="m162.576 146.623h-31.151c-1.381 0-2.5 1.119-2.5 2.5s1.119 2.5 2.5 2.5h31.151c1.381 0 2.5-1.119 2.5-2.5s-1.119-2.5-2.5-2.5z" fill="#ffffff" data-original="#ed9abc" style="" class=""/></g></g><g><g><g><path d="m109.302 102.863h-20.49c-1.381 0-2.5 1.119-2.5 2.5s1.119 2.5 2.5 2.5h20.49c1.381 0 2.5-1.119 2.5-2.5s-1.119-2.5-2.5-2.5zm0 3.5h-20.49c-.551 0-1-.448-1-1s.449-1 1-1h20.49c.551 0 1 .448 1 1s-.449 1-1 1z" fill="#ffffff" data-original="#e54890" style="" class=""/></g></g></g><g><g><g><path d="m121.141 117.45h-32.329c-1.381 0-2.5 1.119-2.5 2.5s1.119 2.5 2.5 2.5h32.329c1.381 0 2.5-1.119 2.5-2.5s-1.12-2.5-2.5-2.5zm0 3.5h-32.329c-.551 0-1-.448-1-1s.449-1 1-1h32.329c.551 0 1 .448 1 1s-.449 1-1 1z" fill="#ffffff" data-original="#e54890" style="" class=""/></g></g></g><g><g><g><path d="m162.576 117.45h-31.436c-1.381 0-2.5 1.119-2.5 2.5s1.119 2.5 2.5 2.5h31.436c1.381 0 2.5-1.119 2.5-2.5s-1.119-2.5-2.5-2.5zm0 3.5h-31.436c-.551 0-1-.448-1-1s.449-1 1-1h31.436c.551 0 1 .448 1 1s-.448 1-1 1z" fill="#ffffff" data-original="#e54890" style="" class=""/></g></g></g><g><g><g><path d="m102.547 132.036h-13.735c-1.381 0-2.5 1.119-2.5 2.5s1.119 2.5 2.5 2.5h13.735c1.381 0 2.5-1.119 2.5-2.5s-1.119-2.5-2.5-2.5zm0 3.5h-13.735c-.551 0-1-.448-1-1s.449-1 1-1h13.735c.551 0 1 .448 1 1s-.449 1-1 1z" fill="#ffffff" data-original="#e54890" style="" class=""/></g></g></g><g><g><g><path d="m158.781 132.036h-12.843c-1.381 0-2.5 1.119-2.5 2.5s1.119 2.5 2.5 2.5h12.843c1.381 0 2.5-1.119 2.5-2.5s-1.119-2.5-2.5-2.5zm0 3.5h-12.843c-.551 0-1-.448-1-1s.449-1 1-1h12.843c.551 0 1 .448 1 1s-.448 1-1 1z" fill="#ffffff" data-original="#e54890" style="" class=""/></g></g></g><g><g><g><path d="m135.938 132.036h-23.392c-1.381 0-2.5 1.119-2.5 2.5s1.119 2.5 2.5 2.5h23.392c1.381 0 2.5-1.119 2.5-2.5s-1.119-2.5-2.5-2.5zm0 3.5h-23.392c-.551 0-1-.448-1-1s.449-1 1-1h23.392c.551 0 1 .448 1 1s-.448 1-1 1z" fill="#ffffff" data-original="#e54890" style="" class=""/></g></g></g><g><g><g><path d="m95.679 146.623h-6.867c-1.381 0-2.5 1.119-2.5 2.5s1.119 2.5 2.5 2.5h6.867c1.381 0 2.5-1.119 2.5-2.5s-1.119-2.5-2.5-2.5zm0 3.5h-6.867c-.551 0-1-.448-1-1s.449-1 1-1h6.867c.551 0 1 .448 1 1s-.449 1-1 1z" fill="#ffffff" data-original="#e54890" style="" class=""/></g></g></g><g><g><g><path d="m121.425 146.623h-15.746c-1.381 0-2.5 1.119-2.5 2.5s1.119 2.5 2.5 2.5h15.746c1.381 0 2.5-1.119 2.5-2.5s-1.119-2.5-2.5-2.5zm0 3.5h-15.746c-.551 0-1-.448-1-1s.449-1 1-1h15.746c.551 0 1 .448 1 1s-.449 1-1 1z" fill="#ffffff" data-original="#e54890" style="" class=""/></g></g></g><g><g><g><path d="m162.576 146.623h-31.151c-1.381 0-2.5 1.119-2.5 2.5s1.119 2.5 2.5 2.5h31.151c1.381 0 2.5-1.119 2.5-2.5s-1.119-2.5-2.5-2.5zm0 3.5h-31.151c-.551 0-1-.448-1-1s.449-1 1-1h31.151c.551 0 1 .448 1 1s-.448 1-1 1z" fill="#ffffff" data-original="#e54890" style="" class=""/></g></g></g><g><g><path d="m162.576 63.88h-73.764c-1.381 0-2.5 1.119-2.5 2.5s1.119 2.5 2.5 2.5h73.765c1.381 0 2.5-1.119 2.5-2.5s-1.12-2.5-2.501-2.5z" fill="#ffffff" data-original="#d3d3d3" style="" class=""/></g></g><g><g><path d="m162.576 80.949h-73.764c-1.381 0-2.5 1.119-2.5 2.5s1.119 2.5 2.5 2.5h73.765c1.381 0 2.5-1.119 2.5-2.5s-1.12-2.5-2.501-2.5z" fill="#ffffff" data-original="#d3d3d3" style="" class=""/></g></g><g><g><g><path d="m162.576 63.88h-73.764c-1.381 0-2.5 1.119-2.5 2.5s1.119 2.5 2.5 2.5h73.765c1.381 0 2.5-1.119 2.5-2.5s-1.12-2.5-2.501-2.5zm0 3.5h-73.764c-.551 0-1-.448-1-1s.449-1 1-1h73.765c.551 0 1 .448 1 1s-.449 1-1.001 1z" fill="#ffffff" data-original="#ebe7f2" style="" class=""/></g></g></g><g><g><g><path d="m162.576 80.949h-73.764c-1.381 0-2.5 1.119-2.5 2.5s1.119 2.5 2.5 2.5h73.765c1.381 0 2.5-1.119 2.5-2.5s-1.12-2.5-2.501-2.5zm0 3.5h-73.764c-.551 0-1-.448-1-1s.449-1 1-1h73.765c.551 0 1 .448 1 1s-.449 1-1.001 1z" fill="#ffffff" data-original="#ebe7f2" style="" class=""/></g></g></g></g></g></g></svg>
