<?xml version="1.0"?>
<svg xmlns="http://www.w3.org/2000/svg" xmlns:xlink="http://www.w3.org/1999/xlink" xmlns:svgjs="http://svgjs.com/svgjs" version="1.1" width="512" height="512" x="0" y="0" viewBox="0 0 510 510" style="enable-background:new 0 0 512 512" xml:space="preserve" class=""><g><g xmlns="http://www.w3.org/2000/svg"><path d="m255 439.327-60.75-49.359-174.592 120.032h470.684l-174.593-120.032z" fill="#114d61" data-original="#000000" style="" class=""/><path d="m0 232.14v254.97l169.98-116.861z" fill="#114d61" data-original="#000000" style="" class=""/><path d="m340.019 370.249 169.981 116.861v-254.97z" fill="#114d61" data-original="#000000" style="" class=""/><path d="m75 157.79-59.927 47.942 59.927 48.691z" fill="#114d61" data-original="#000000" style="" class=""/><path d="m435 157.791v96.632l59.927-48.691z" fill="#114d61" data-original="#000000" style="" class=""/><path d="m255 400.673c5.658-4.598 138.579-112.596 150-121.875v-278.798h-300v278.798c10.924 8.875 143.391 116.505 150 121.875zm105-145.673h-180v-30h180zm-210-210h120v30h-120zm0 60h225v30h-225zm0 60h150v30h-150z" fill="#114d61" data-original="#000000" style="" class=""/></g></g></svg>
