<?xml version="1.0"?>
<svg xmlns="http://www.w3.org/2000/svg" xmlns:xlink="http://www.w3.org/1999/xlink" xmlns:svgjs="http://svgjs.com/svgjs" version="1.1" width="512" height="512" x="0" y="0" viewBox="0 0 512 512" style="enable-background:new 0 0 512 512" xml:space="preserve" class=""><g><path xmlns="http://www.w3.org/2000/svg" d="m422 0h-422v452c0 33.085938 26.914062 60 60 60h392 .007812c33.078126 0 59.992188-26.914062 59.992188-60v-211h-90zm-362 482c-16.542969 0-30-13.457031-30-30v-422h362v422c0 10.925781 2.949219 21.167969 8.070312 30zm422-211v181c0 16.542969-13.453125 30-30 30-16.542969 0-30-13.457031-30-30v-181zm0 0" fill="#ffffff" data-original="#000000" style="" class=""/><path xmlns="http://www.w3.org/2000/svg" d="m60 181h302v-121h-302zm30-91h242v61h-242zm0 0" fill="#ffffff" data-original="#000000" style="" class=""/><path xmlns="http://www.w3.org/2000/svg" d="m60 211h151v30h-151zm0 0" fill="#ffffff" data-original="#000000" style="" class=""/><path xmlns="http://www.w3.org/2000/svg" d="m241 211h121v30h-121zm0 0" fill="#ffffff" data-original="#000000" style="" class=""/><path xmlns="http://www.w3.org/2000/svg" d="m60 271h151v30h-151zm0 0" fill="#ffffff" data-original="#000000" style="" class=""/><path xmlns="http://www.w3.org/2000/svg" d="m241 271h121v30h-121zm0 0" fill="#ffffff" data-original="#000000" style="" class=""/><path xmlns="http://www.w3.org/2000/svg" d="m60 331h151v30h-151zm0 0" fill="#ffffff" data-original="#000000" style="" class=""/><path xmlns="http://www.w3.org/2000/svg" d="m60 391h151v30h-151zm0 0" fill="#ffffff" data-original="#000000" style="" class=""/><path xmlns="http://www.w3.org/2000/svg" d="m241 421h121v-90h-121zm30-60h61v30h-61zm0 0" fill="#ffffff" data-original="#000000" style="" class=""/></g></svg>
