<?xml version="1.0"?>
<svg xmlns="http://www.w3.org/2000/svg" xmlns:xlink="http://www.w3.org/1999/xlink" xmlns:svgjs="http://svgjs.com/svgjs" version="1.1" width="512" height="512" x="0" y="0" viewBox="0 0 316.501 316.501" style="enable-background:new 0 0 512 512" xml:space="preserve" class=""><g>
<g xmlns="http://www.w3.org/2000/svg">
	<path d="M158.25,0C70.998,0,0.006,71,0.006,158.247c0,87.253,70.992,158.254,158.245,158.254   c87.255,0,158.245-71.001,158.245-158.254C316.507,71,245.518,0,158.25,0z M145.76,236.78c-0.036,0-0.066,0-0.093,0   c-0.012,0-0.03,0-0.042,0c-4.666-0.048-45.963-0.786-58.937-13.763c-12.985-12.976-13.724-54.271-13.775-58.942   c0-1.189,0.462-2.318,1.294-3.159c0.841-0.841,2.096-1.297,3.159-1.297c4.675,0.048,45.976,0.786,58.955,13.769   c12.175,12.166,13.571,49.306,13.739,57.683c0.129,0.414,0.189,0.841,0.189,1.297C150.249,234.835,148.207,236.811,145.76,236.78z    M158.25,174.884c-1.177,0-2.318-0.469-3.144-1.321c-3.27-3.327-31.943-33.054-31.943-51.401c0-18.356,28.673-48.086,31.943-51.413   c1.654-1.69,4.629-1.69,6.284,0c3.272,3.327,31.934,33.057,31.934,51.413c0,18.348-28.661,48.074-31.934,51.401   C160.568,174.415,159.431,174.884,158.25,174.884z M229.81,223.018c-12.971,12.977-54.26,13.715-58.938,13.763   c-0.006,0-0.023,0-0.036,0c-1.158,0-2.299-0.468-3.128-1.291c-0.829-0.834-1.285-1.975-1.285-3.164   c0.048-4.672,0.793-45.973,13.775-58.938c12.958-12.982,54.271-13.721,58.931-13.769c1.135-0.019,2.318,0.456,3.164,1.297   c0.829,0.841,1.298,1.958,1.298,3.159C243.536,168.734,242.798,210.035,229.81,223.018z" fill="#114d61" data-original="#000000" style="" class=""/>
</g>
<g xmlns="http://www.w3.org/2000/svg">
</g>
<g xmlns="http://www.w3.org/2000/svg">
</g>
<g xmlns="http://www.w3.org/2000/svg">
</g>
<g xmlns="http://www.w3.org/2000/svg">
</g>
<g xmlns="http://www.w3.org/2000/svg">
</g>
<g xmlns="http://www.w3.org/2000/svg">
</g>
<g xmlns="http://www.w3.org/2000/svg">
</g>
<g xmlns="http://www.w3.org/2000/svg">
</g>
<g xmlns="http://www.w3.org/2000/svg">
</g>
<g xmlns="http://www.w3.org/2000/svg">
</g>
<g xmlns="http://www.w3.org/2000/svg">
</g>
<g xmlns="http://www.w3.org/2000/svg">
</g>
<g xmlns="http://www.w3.org/2000/svg">
</g>
<g xmlns="http://www.w3.org/2000/svg">
</g>
<g xmlns="http://www.w3.org/2000/svg">
</g>
</g></svg>
