<?xml version="1.0"?>
<svg xmlns="http://www.w3.org/2000/svg" xmlns:xlink="http://www.w3.org/1999/xlink" xmlns:svgjs="http://svgjs.com/svgjs" version="1.1" width="512" height="512" x="0" y="0" viewBox="0 0 24 24" style="enable-background:new 0 0 512 512" xml:space="preserve" class=""><g><path xmlns="http://www.w3.org/2000/svg" d="m9 10c-2.757 0-5-2.243-5-5s2.243-5 5-5 5 2.243 5 5-2.243 5-5 5z" fill="#114d61" data-original="#000000" style="" class=""/><path xmlns="http://www.w3.org/2000/svg" d="m4.75 12c-2.62 0-4.75 2.13-4.75 4.75v3.5c0 .41.34.75.75.75h9.25v-3.25c0-1.88 1.4-3.43 3.21-3.7.26-.76.75-1.4 1.38-1.86-1-.286-1.054-.19-9.84-.19z" fill="#114d61" data-original="#000000" style="" class=""/><path xmlns="http://www.w3.org/2000/svg" d="m22.25 16h-1.25v-.75c0-.965-.785-1.75-1.75-1.75h-2.5c-.965 0-1.75.785-1.75 1.75v.75h-1.25c-.492 0-.935.205-1.253.533l5.503 2.871 5.503-2.871c-.318-.328-.761-.533-1.253-.533zm-5.75 0v-.75c0-.138.112-.25.25-.25h2.5c.138 0 .25.112.25.25v.75z" fill="#114d61" data-original="#000000" style="" class=""/><path xmlns="http://www.w3.org/2000/svg" d="m18.347 20.915c-.217.113-.477.113-.693 0l-5.654-2.95v4.285c0 .965.785 1.75 1.75 1.75h8.5c.965 0 1.75-.785 1.75-1.75v-4.285z" fill="#114d61" data-original="#000000" style="" class=""/></g></svg>
